<svg width="124" height="52" viewBox="0 0 124 52" fill="none" xmlns="http://www.w3.org/2000/svg">
<path d="M1.03578 0.34546C20.9099 6.10499 40.3983 15.774 46.2207 25.7202C35.9745 16.8259 16.3186 8.19005 0.0352325 5.33048V9.12849C52.2162 23.2093 37.1111 35.8572 87.0062 51.3499H102.009C85.7717 47.1455 70.9636 41.4034 61.3313 32.8455L61.3282 32.8439V32.8428L61.3313 32.8454C77.1949 41.1548 98.5634 47.7266 123.391 51.3499H123.537V36.9208C95.8499 33.4158 76.6864 27.9924 64.9959 21.9896C79.4904 27.2008 103.28 31.6436 123.537 33.0311V27.5733C99.0819 26.6817 73.1385 21.2977 55.2134 14.5236C44.2395 10.3763 35.1404 4.86663 18.2247 0.345245H1.03552L1.03578 0.34546ZM93.3877 11.4202C89.9095 11.4202 87.0897 12.5774 87.0897 14.005C87.0897 15.4326 89.9095 16.5901 93.3877 16.5901C96.8659 16.5901 99.6854 15.4326 99.6854 14.005C99.6854 12.5774 96.8659 11.4202 93.3877 11.4202ZM1.55713 15.082C16.5282 19.9178 34.4866 30.2583 31.2444 36.5754C30.6475 36.4839 30.0156 36.4367 29.3784 36.4361C26.4078 36.4361 24 37.4244 24 38.6436C24 39.8626 26.4078 40.8511 29.3784 40.8511C31.48 40.8511 33.2952 40.3551 34.1798 39.6337C35.943 38.5741 36.2788 36.512 35.9805 34.4076C34.8896 26.6934 21.7835 18.5114 1.55713 15.082ZM111.649 15.7384C106.993 15.7384 103.109 17.0944 102.214 18.8966C94.4306 19.6668 83.585 18.8815 75.2713 17.2441C86.0967 20.9555 98.0688 22.9864 109.753 23.5659C110.366 23.6164 111 23.6432 111.649 23.6432C116.968 23.6432 121.278 21.8735 121.278 19.6906C121.278 17.5078 116.968 15.7383 111.649 15.7383L111.649 15.7384ZM38.6016 28.9334C41.6537 32.5993 42.9343 37.4849 41.1795 41.2198C39.0507 41.8411 37.6604 42.8612 37.6604 44.0149C37.6604 45.9082 41.3999 47.4431 46.0129 47.4431C50.626 47.4431 54.3654 45.9083 54.3654 44.0149C54.3654 43.3366 53.8839 42.7049 53.0555 42.1726L38.6016 28.9334Z" fill="#BC1F1F"/>
</svg>
