<svg width="40" height="40" viewBox="0 0 40 40" fill="none" xmlns="http://www.w3.org/2000/svg">
<path d="M1.20524 0.791058C7.43444 5.18925 13.5427 12.5729 15.3677 20.1682C12.1562 13.3761 5.99537 6.78147 0.891632 4.5978V7.4981C17.2469 18.2508 12.5124 27.9091 28.1512 39.7399H32.8537C27.7642 36.5293 23.1229 32.1444 20.1038 25.6093L20.1029 25.6081V25.6072L20.1038 25.6092C25.076 31.9546 31.7736 36.973 39.5555 39.7399H39.6012V28.7213C30.9231 26.0448 24.9166 21.9033 21.2524 17.3193C25.7955 21.2988 33.2518 24.6914 39.6012 25.751V21.5832C31.9361 20.9023 23.8046 16.7909 18.1863 11.618C14.7467 8.45097 11.8947 4.24359 6.5928 0.790894H1.20516L1.20524 0.791058ZM30.1514 9.24815C29.0612 9.24815 28.1774 10.1318 28.1774 11.222C28.1774 12.3122 29.0612 13.1961 30.1514 13.1961C31.2416 13.1961 32.1253 12.3122 32.1253 11.222C32.1253 10.1318 31.2416 9.24815 30.1514 9.24815ZM1.36864 12.0444C6.06108 15.7372 11.6898 23.6336 10.6736 28.4576C10.4865 28.3877 10.2885 28.3516 10.0887 28.3512C9.15767 28.3512 8.40299 29.1059 8.40299 30.0369C8.40299 30.9678 9.15767 31.7227 10.0887 31.7227C10.7474 31.7227 11.3164 31.3438 11.5937 30.793C12.1463 29.9839 12.2516 28.4092 12.158 26.8022C11.8161 20.9113 7.70826 14.6632 1.36864 12.0444ZM35.8751 12.5456C34.4157 12.5456 33.1984 13.5811 32.9179 14.9574C30.4783 15.5455 27.0789 14.9459 24.4731 13.6955C27.8661 16.5297 31.6186 18.0805 35.2807 18.523C35.4728 18.5616 35.6716 18.5821 35.875 18.5821C37.542 18.5821 38.8932 17.2306 38.8932 15.5637C38.8932 13.8969 37.5421 12.5456 35.875 12.5456L35.8751 12.5456ZM12.9796 22.6219C13.9362 25.4213 14.3376 29.1521 13.7876 32.0042C13.1204 32.4787 12.6846 33.2576 12.6846 34.1387C12.6846 35.5845 13.8567 36.7565 15.3026 36.7565C16.7484 36.7565 17.9205 35.5845 17.9205 34.1387C17.9205 33.6206 17.7696 33.1383 17.5099 32.7318L12.9796 22.6219Z" fill="#BC1F1F"/>
</svg>
