<svg width="13" height="13" viewBox="0 0 13 13" fill="none" xmlns="http://www.w3.org/2000/svg">
<path d="M9.45534 1.625L11.375 1.62663L11.3761 3.53492L8.4148 6.49567L9.94663 8.02804L10.7131 7.26213L11.4795 8.02804L10.1389 9.36867L11.6708 10.901L10.9048 11.667L9.37246 10.1346L8.03238 11.4752L7.26592 10.7093L8.03184 9.94283L6.49946 8.411L4.96763 9.94283L5.73409 10.7093L4.96817 11.4752L3.62755 10.1346L2.09517 11.667L1.32925 10.901L2.86163 9.36813L1.521 8.02804L2.28692 7.26213L3.05284 8.0275L4.58413 6.49567L1.62663 3.53817L1.62446 1.625L3.54521 1.62663L6.49892 4.58087L9.45534 1.625ZM5.3495 7.26158L3.81767 8.79342L4.20117 9.17638L5.73246 7.64454L5.3495 7.26158ZM10.2917 2.70888H9.9033L7.26538 5.34625L7.6478 5.72921L10.2917 3.08642V2.70888ZM2.70834 2.70888V3.08804L8.79721 9.17692L9.18017 8.79396L3.09563 2.70942L2.70834 2.70888Z" fill="#BC1F1F"/>
</svg>
