<svg width="34" height="33" viewBox="0 0 34 33" fill="none" xmlns="http://www.w3.org/2000/svg">
<path d="M26.548 0.25L32.75 0.25525L32.7535 6.4205L23.1862 15.986L28.1352 20.9368L30.6115 18.4623L33.0877 20.9368L28.7565 25.268L33.7055 30.2188L31.231 32.6933L26.2802 27.7425L21.9507 32.0738L19.4745 29.5993L21.949 27.123L16.9982 22.174L12.0492 27.123L14.5255 29.5993L12.051 32.0738L7.71974 27.7425L2.76899 32.6933L0.294495 30.2188L5.24524 25.2663L0.913995 20.9368L3.38849 18.4623L5.863 20.935L10.8102 15.986L1.25524 6.431L1.24824 0.25L7.45374 0.25525L16.9965 9.79975L26.548 0.25ZM13.283 18.4605L8.33399 23.4095L9.57299 24.6468L14.5202 19.6978L13.283 18.4605ZM29.25 3.75175H27.9952L19.4727 12.2725L20.7082 13.5098L29.25 4.9715V3.75175ZM4.74999 3.75175V4.97675L24.4217 24.6485L25.659 23.4113L6.00125 3.7535L4.74999 3.75175Z" fill="white"/>
</svg>
